<svg id="Layer_1" data-name="Layer 1" xmlns="http://www.w3.org/2000/svg" viewBox="0 0 208.1 58.43"><defs><style>.cls-1,.cls-2{fill:#fff;}.cls-2{stroke:#fff;stroke-miterlimit:10;}</style></defs><title>logo_old_C</title><polygon class="cls-1" points="197.28 0.38 191.77 13.77 190.92 13.77 185.87 0.38 174.48 0.38 185.56 27.68 185.56 37.87 197.32 37.87 197.32 27.68 208.1 0.38 197.28 0.38"/><path class="cls-1" d="M268.83,139.9h-.14c-13.22,0-17.5,5-17.5,18.54v.34c0,13.54,4.28,18.53,17.5,18.53h.14c13.22,0,17.5-5,17.5-18.53v-.34C286.33,144.89,282.05,139.9,268.83,139.9Zm4.92,25v.45a2.7,2.7,0,0,1-2.7,2.7H264V151.89a2.7,2.7,0,0,1,2.7-2.7h7.06Z" transform="translate(-111.54 -139.48)"/><path class="cls-1" d="M247.43,177.35V139.86h-12V150a3.33,3.33,0,0,1-3.28,3.17h-5.8V139.86H214.25v37.49h12V167.07a3.41,3.41,0,0,1,3.44-3h5.7v13.26Z" transform="translate(-111.54 -139.48)"/><path class="cls-1" d="M183.11,139.86l-9.74,37.49h12.74l.69-3a4.71,4.71,0,0,1,4.76-3h5.92l1.3,6h12.61l-9.8-37.49ZM193,161.94h-3.53L192,151.36h.85l2,8.64C195.25,161.94,193,161.94,193,161.94Z" transform="translate(-111.54 -139.48)"/><path class="cls-2" d="M250.16,186.8h-.32a2.46,2.46,0,0,0-1.83.68,2.41,2.41,0,0,0-.4.58,2.51,2.51,0,0,0-.41-.59,2.43,2.43,0,0,0-1.83-.69h-.32a2.5,2.5,0,0,0-1.82.69,2.34,2.34,0,0,0-.71,1.91v4.77h.6v-4.69h0v-.12a2.3,2.3,0,0,1,.54-1.47,1.88,1.88,0,0,1,1.39-.5h.32a1.86,1.86,0,0,1,1.39.5,2.39,2.39,0,0,1,.55,1.58v4.71h.59v-4.68h0a2.36,2.36,0,0,1,.55-1.58,1.82,1.82,0,0,1,1.39-.5h.32a1.85,1.85,0,0,1,1.39.5,2.32,2.32,0,0,1,.54,1.57v4.7h.6v-4.67a2.93,2.93,0,0,0-.71-2A2.44,2.44,0,0,0,250.16,186.8Z" transform="translate(-111.54 -139.48)"/><path class="cls-2" d="M220,186.79c-1.59,0-2.88,1.65-2.88,3.68s1.29,3.68,2.88,3.68a2.73,2.73,0,0,0,2.33-1.53v1.53h.5V190.4a4.55,4.55,0,0,0-.5-2.08A2.75,2.75,0,0,0,220,186.79Zm0,6.81c-1.28,0-2.33-1.4-2.33-3.13s1.05-3.12,2.33-3.12,2.22,1.4,2.22,3.12S221.3,193.6,220,193.6Z" transform="translate(-111.54 -139.48)"/><path class="cls-2" d="M192.46,186.77c-1.6,0-2.9,1.66-2.9,3.69s1.3,3.7,2.9,3.7a2.5,2.5,0,0,0,2.15-1.54v1.53c0,.21-.31,2.67-2.54,2.67h-2.48v.59h2.48c2.27,0,3-2.11,3.13-3.22V190a4,4,0,0,0-.4-1.71A2.76,2.76,0,0,0,192.46,186.77Zm0,6.83c-1.29,0-2.34-1.4-2.34-3.14s1-3.13,2.34-3.13,2.23,1.4,2.23,3.13S193.74,193.6,192.46,193.6Z" transform="translate(-111.54 -139.48)"/><path class="cls-2" d="M277.9,188.92a2.74,2.74,0,0,0-5.36,0v.1c0,.11,0,2.81,0,3.17v0a2.17,2.17,0,0,0,2.37,1.94h.29a2.45,2.45,0,0,0,2.37-1.32l-.54-.22a1.87,1.87,0,0,1-1.83,1h-.29a1.61,1.61,0,0,1-1.8-1.45c0-.14,0-.55,0-1h2.1A2.47,2.47,0,0,0,277.9,188.92Zm-4.78,1.58v-1.58c0-.87.94-1.58,2.1-1.58s2.1.71,2.1,1.58-.94,1.58-2.1,1.58Z" transform="translate(-111.54 -139.48)"/><path class="cls-2" d="M302.94,190.18l-.11,0a1.88,1.88,0,0,1-1.32-.69,1.91,1.91,0,0,1-.15-1.53h0s.22-.63,1.41-.63H303c1.19,0,1.4.6,1.41.63l.61-.15s-.32-1-2-1h-.23c-1.63,0-2,.92-2,1a2.39,2.39,0,0,0,.22,2,2.51,2.51,0,0,0,1.75,1l.11,0a1.85,1.85,0,0,1,1.32.68,2,2,0,0,1,.15,1.56h0s-.22.63-1.41.63h-.22c-1.19,0-1.41-.61-1.41-.63l-.62.14s.32,1,2,1h.22c1.63,0,2-.92,2-1a2.42,2.42,0,0,0-.21-2A2.47,2.47,0,0,0,302.94,190.18Z" transform="translate(-111.54 -139.48)"/><path class="cls-1" d="M138.69,139.48a27.16,27.16,0,1,0,27.16,27.16A27.16,27.16,0,0,0,138.69,139.48Zm.33,51.41a25.22,25.22,0,0,1-12.83-3.56c0-5.53,4.11-11.31,9.67-12.61l0,0a15,15,0,0,0,1-5.59c0-.2,0-.62,0-.83-.13-2.08.58-2.59,2.16-2.64,4.76-.14,7.62-4.5,7.62-9.5a7.54,7.54,0,0,0-7.62-7.72c-4.76,0-7.9,3.2-7.75,8.21a11.69,11.69,0,0,0,1.8,5.94s-5.82-2.11-5.82-7.36A11.37,11.37,0,0,1,139,143.39c6.7,0,12.19,5.4,12.19,13,0,8.59-4.07,11.49-9.24,13-.81,1.84.3,5.3.3,5.3l0,0c5.54,1.32,9.63,7.08,9.63,12.6A25.23,25.23,0,0,1,139,190.89Z" transform="translate(-111.54 -139.48)"/></svg>